<?xml version="1.0" standalone="no"?>
<!DOCTYPE svg PUBLIC "-//W3C//DTD SVG 20010904//EN"
 "http://www.w3.org/TR/2001/REC-SVG-20010904/DTD/svg10.dtd">
<svg version="1.0" xmlns="http://www.w3.org/2000/svg"
 width="1454.000000pt" height="1454.000000pt" viewBox="0 0 1454.000000 1454.000000"
 preserveAspectRatio="xMidYMid meet">
<metadata>
Created by potrace 1.11, written by Peter Selinger 2001-2013
</metadata>
<g transform="translate(0.000000,1454.000000) scale(0.100000,-0.100000)"
fill="#000000" stroke="none">
<path d="M6680 11797 c0 -5 -4 -6 -9 -3 -21 13 -26 -64 -25 -338 0 -259 2
-290 17 -301 13 -10 172 -12 689 -12 508 0 673 -2 676 -11 2 -7 12 -12 21 -12
10 0 30 -9 43 -20 14 -10 28 -16 32 -13 3 3 6 2 6 -3 0 -5 23 -34 50 -64 28
-30 50 -60 50 -67 0 -7 5 -13 10 -13 6 0 10 -7 10 -15 0 -8 4 -15 9 -15 5 0
16 -15 24 -33 9 -18 24 -42 34 -54 28 -32 55 -68 91 -120 18 -27 63 -90 100
-141 37 -52 71 -103 77 -113 5 -10 13 -19 17 -19 5 0 8 -4 8 -9 0 -15 80 -131
90 -131 6 0 10 -6 10 -12 0 -7 14 -28 30 -45 17 -18 30 -35 30 -38 -1 -6 7
-17 75 -113 25 -34 45 -66 45 -71 0 -5 3 -11 8 -13 9 -4 52 -65 52 -73 0 -4 6
-13 13 -20 15 -18 29 -37 42 -57 22 -36 89 -133 95 -138 10 -9 150 -199 150
-204 0 -8 -63 5 -76 16 -7 5 -33 11 -59 14 -26 2 -52 7 -57 10 -22 14 -128 16
-803 16 -653 0 -802 -3 -824 -16 -4 -3 -33 -7 -65 -10 -32 -4 -65 -10 -74 -15
-9 -5 -33 -12 -52 -15 -19 -3 -64 -17 -100 -31 -36 -15 -69 -28 -75 -29 -21
-5 -90 -41 -93 -48 -2 -5 -12 -8 -22 -8 -10 0 -25 -6 -32 -13 -7 -7 -38 -28
-68 -47 -30 -19 -64 -43 -76 -54 -12 -10 -23 -17 -25 -15 -2 2 -18 -10 -35
-26 -17 -17 -58 -55 -90 -86 -32 -31 -84 -84 -114 -118 -77 -88 -84 -96 -95
-114 -5 -8 -32 -47 -58 -87 -27 -39 -59 -92 -73 -118 -14 -26 -29 -51 -35 -56
-5 -6 -9 -18 -9 -28 0 -22 15 -21 -222 -23 l-198 -2 -24 37 c-27 42 -85 102
-140 145 -44 35 -146 94 -163 95 -6 0 -24 5 -40 11 -15 7 -41 13 -58 14 -16 1
-59 5 -94 10 -36 4 -301 8 -590 9 -470 1 -530 3 -561 18 -19 9 -57 26 -85 38
-27 11 -62 28 -77 36 -16 8 -28 12 -28 9 0 -3 -10 0 -22 7 -13 6 -27 13 -33
14 -5 2 -36 12 -67 23 -32 12 -66 21 -77 21 -11 0 -22 4 -25 9 -3 4 -27 11
-54 15 -27 3 -52 9 -56 13 -7 7 -20 10 -81 19 -22 3 -42 8 -45 12 -6 8 -4 7
-77 16 -28 3 -62 10 -76 15 -13 5 -64 12 -113 16 -91 6 -140 12 -178 22 -43
11 -1500 12 -1513 1 -18 -14 -17 -614 0 -638 11 -13 84 -15 612 -16 580 0 813
-6 835 -19 12 -8 32 -11 101 -20 30 -3 76 -13 103 -21 27 -8 60 -14 73 -14 13
0 23 -4 23 -9 0 -5 19 -12 43 -16 23 -4 48 -12 55 -17 7 -6 25 -12 40 -14 16
-2 41 -10 58 -19 16 -8 37 -15 47 -15 9 0 17 -4 17 -10 0 -5 6 -10 14 -10 19
0 184 -79 192 -91 3 -5 14 -9 25 -9 10 0 19 -4 19 -10 0 -5 11 -12 25 -16 14
-3 25 -10 25 -14 0 -5 10 -12 23 -16 26 -8 200 -123 205 -136 2 -4 10 -8 17
-8 8 0 18 -6 22 -12 4 -7 31 -31 58 -53 28 -21 62 -52 78 -67 15 -15 27 -26
27 -23 0 2 24 -21 53 -52 28 -31 70 -75 93 -98 22 -23 55 -62 74 -86 19 -24
41 -52 49 -61 29 -31 41 -47 41 -54 0 -3 13 -23 28 -43 34 -43 122 -188 122
-200 0 -5 7 -14 15 -21 8 -7 15 -18 15 -26 0 -7 13 -36 30 -64 16 -28 33 -62
36 -75 3 -14 10 -25 15 -25 5 0 9 -7 9 -16 0 -9 6 -30 14 -47 37 -85 56 -137
56 -154 0 -11 4 -23 9 -28 5 -6 12 -27 15 -48 3 -21 11 -47 16 -57 5 -10 12
-38 15 -62 7 -52 10 -68 18 -88 6 -14 21 -109 36 -226 l7 -50 -151 2 c-82 2
-155 3 -161 4 -5 0 -10 10 -10 23 0 12 -8 58 -18 102 -10 44 -19 85 -20 90 0
6 -4 12 -8 15 -3 3 -9 21 -12 40 -8 41 -9 46 -24 83 -7 16 -12 35 -12 43 0 8
-4 22 -9 32 -26 52 -51 114 -51 127 0 8 -4 15 -10 15 -5 0 -10 8 -10 18 0 20
-43 106 -94 191 -20 32 -36 63 -36 69 0 6 -4 12 -8 14 -5 2 -26 30 -47 63 -22
33 -44 65 -50 71 -5 6 -17 22 -25 34 -16 23 -35 46 -76 92 -13 15 -24 30 -24
32 0 8 -153 159 -209 206 -29 25 -70 60 -90 77 -20 18 -42 33 -49 33 -7 0 -10
5 -7 10 3 6 0 10 -8 10 -8 0 -25 9 -38 20 -13 11 -29 23 -34 28 -6 5 -33 22
-60 38 -27 16 -59 35 -70 41 -11 7 -32 18 -47 25 -16 7 -28 16 -28 19 0 4 -13
10 -30 14 -17 4 -30 11 -30 16 0 5 -5 9 -11 9 -5 0 -31 9 -57 21 -26 11 -63
27 -82 35 -19 8 -42 19 -50 23 -9 5 -31 12 -50 16 -19 4 -44 12 -55 18 -11 6
-31 13 -45 15 -13 2 -29 7 -35 12 -5 4 -32 11 -60 15 -27 3 -52 9 -55 13 -3 4
-12 8 -20 9 -8 1 -49 7 -90 12 -41 6 -93 13 -115 17 -94 16 -543 8 -595 -9 -8
-3 -39 -8 -68 -12 -30 -3 -61 -9 -70 -14 -10 -5 -35 -12 -57 -15 -22 -3 -51
-10 -65 -15 -14 -4 -59 -18 -100 -31 -41 -12 -87 -29 -102 -37 -15 -7 -31 -14
-35 -15 -10 -1 -49 -16 -88 -33 -73 -33 -121 -56 -135 -65 -8 -5 -44 -26 -80
-47 -36 -20 -67 -39 -70 -42 -3 -3 -17 -12 -32 -20 -16 -8 -28 -18 -28 -23 0
-4 -5 -8 -11 -8 -12 0 -133 -89 -199 -146 -58 -51 -220 -211 -220 -218 0 -3
-8 -14 -17 -24 -22 -22 -63 -73 -83 -102 -8 -13 -21 -28 -27 -36 -7 -7 -13
-17 -13 -23 0 -5 -6 -14 -12 -18 -17 -10 -58 -69 -58 -82 0 -5 -3 -11 -7 -13
-7 -3 -28 -39 -72 -123 -9 -16 -19 -31 -23 -33 -5 -2 -8 -7 -8 -12 0 -4 -16
-42 -35 -83 -19 -41 -35 -82 -35 -90 0 -9 -4 -18 -9 -21 -5 -3 -19 -38 -32
-78 -12 -40 -26 -77 -30 -83 -4 -5 -10 -28 -14 -50 -4 -22 -11 -47 -15 -55 -5
-8 -11 -40 -15 -70 -4 -30 -11 -62 -15 -71 -5 -8 -12 -51 -15 -95 -4 -43 -9
-83 -13 -88 -3 -5 -6 -23 -8 -40 -4 -59 -4 -361 1 -386 3 -14 7 -36 10 -50 2
-14 7 -50 10 -80 6 -61 14 -110 20 -121 3 -3 7 -28 10 -55 4 -26 9 -52 12 -57
3 -5 11 -32 18 -60 7 -29 19 -68 25 -87 7 -19 16 -44 20 -55 4 -11 17 -41 29
-68 11 -26 21 -54 21 -61 0 -7 7 -19 15 -26 8 -7 12 -17 9 -22 -3 -5 0 -17 8
-26 8 -9 23 -37 33 -62 11 -25 22 -47 25 -50 4 -3 21 -32 40 -65 29 -53 135
-212 150 -225 3 -3 23 -27 44 -55 53 -66 56 -70 123 -140 32 -33 57 -63 55
-67 -1 -5 3 -8 9 -8 7 0 26 -13 43 -30 51 -48 70 -64 111 -95 22 -16 45 -34
50 -39 17 -18 165 -116 175 -116 6 0 10 -4 10 -8 0 -5 18 -16 40 -26 22 -10
46 -23 53 -29 20 -19 166 -87 186 -87 6 0 11 -4 11 -10 0 -5 8 -10 18 -10 9
-1 35 -9 57 -20 22 -11 50 -19 63 -20 12 0 22 -4 22 -9 0 -5 20 -12 45 -15 25
-4 45 -11 45 -17 0 -5 10 -9 23 -9 13 0 46 -6 73 -14 27 -8 69 -18 94 -21 24
-4 51 -10 60 -15 8 -4 62 -11 120 -15 58 -4 112 -10 120 -14 18 -8 148 -6 250
3 41 3 107 9 147 11 78 6 108 11 122 19 4 3 36 8 71 11 34 3 70 10 80 15 10 5
34 12 55 14 20 3 42 9 48 15 7 5 24 12 37 15 31 6 108 33 135 47 12 6 27 11
35 13 8 1 45 17 81 34 36 18 71 32 77 32 6 0 12 3 14 8 2 4 26 18 53 32 28 14
52 27 55 30 3 3 18 12 34 20 56 29 66 35 66 42 0 5 7 8 15 8 9 0 18 7 21 15 4
8 11 15 16 15 12 0 156 110 221 170 103 94 174 168 232 240 33 41 65 80 70 87
23 28 33 41 83 116 28 43 52 80 52 82 0 3 18 34 40 70 22 36 40 67 40 70 0 2
13 32 29 67 48 105 76 179 105 273 15 50 30 97 33 105 4 8 7 18 8 23 2 4 3 8
5 10 1 1 4 20 6 42 2 22 7 47 10 55 8 18 10 26 17 67 3 17 8 36 11 41 3 5 74
9 159 9 l153 1 0 -155 c1 -122 4 -157 15 -164 14 -9 3000 -7 3029 2 8 2 20 7
25 11 6 3 30 9 55 13 25 4 50 11 55 15 13 10 77 25 90 21 5 -1 7 1 3 5 -4 4
15 18 44 31 159 73 377 273 440 403 7 14 15 27 18 30 3 3 15 28 28 55 13 28
28 58 34 69 5 10 12 30 14 44 3 13 11 37 19 52 8 15 12 30 9 32 -2 3 3 24 11
48 8 24 17 60 20 80 2 21 9 49 14 64 6 14 13 54 17 88 3 35 10 79 14 98 5 19
12 71 16 115 3 44 9 82 13 85 3 3 7 16 8 30 11 159 16 210 23 240 5 19 12 87
15 150 4 63 9 122 11 130 12 36 20 127 23 273 l1 58 48 20 c75 32 117 53 120
62 2 4 12 7 22 7 9 0 23 7 30 15 7 8 17 15 22 15 36 0 298 250 298 284 0 5 3
7 6 3 6 -6 41 39 57 73 4 8 16 29 27 45 11 17 29 50 40 75 11 25 24 52 29 60
5 9 12 31 16 50 4 19 11 40 15 45 8 10 15 51 26 145 6 53 22 87 30 65 4 -9 88
-129 112 -160 4 -5 19 -28 32 -50 21 -34 66 -96 122 -166 7 -9 18 -23 23 -32
24 -37 89 -132 94 -137 15 -13 51 -71 51 -81 0 -7 3 -9 7 -6 3 4 11 -3 18 -16
30 -58 42 -75 87 -133 18 -23 40 -51 48 -64 8 -12 23 -31 33 -42 27 -33 20
-56 -30 -107 -27 -25 -68 -70 -93 -100 -25 -29 -52 -62 -60 -71 -8 -10 -22
-28 -30 -41 -8 -12 -23 -29 -32 -38 -10 -8 -18 -19 -18 -24 0 -5 -13 -26 -30
-47 -16 -20 -27 -39 -25 -42 3 -3 -4 -13 -15 -23 -11 -10 -20 -22 -20 -26 0
-5 -18 -38 -40 -74 -22 -36 -40 -68 -40 -70 0 -3 -13 -33 -29 -67 -53 -114
-117 -287 -128 -347 -2 -13 -7 -29 -10 -34 -3 -6 -12 -38 -20 -71 -7 -34 -16
-70 -19 -81 -2 -11 -7 -54 -10 -95 -3 -41 -9 -79 -13 -85 -11 -13 -12 -445 -1
-465 4 -8 11 -53 15 -99 4 -47 11 -94 15 -107 5 -12 12 -41 15 -65 4 -24 11
-52 17 -63 6 -11 13 -36 15 -55 3 -20 9 -40 13 -46 4 -5 11 -26 15 -45 4 -19
11 -37 16 -40 4 -3 9 -17 11 -30 2 -14 12 -40 21 -57 10 -18 15 -33 11 -33 -3
0 4 -15 15 -34 12 -18 21 -40 21 -49 0 -8 4 -17 8 -19 4 -1 17 -23 28 -48 29
-65 185 -313 219 -346 6 -6 28 -34 50 -62 21 -29 43 -52 47 -52 4 0 8 -5 8
-10 0 -10 79 -90 181 -185 96 -88 297 -233 382 -275 26 -13 47 -27 47 -32 0
-4 9 -8 19 -8 11 0 26 -7 35 -15 8 -8 19 -15 23 -15 5 0 36 -14 68 -30 33 -17
70 -32 84 -35 13 -2 27 -8 30 -13 3 -5 24 -12 46 -16 22 -4 45 -11 50 -15 9
-6 69 -25 194 -63 19 -6 48 -12 65 -14 41 -4 98 -14 105 -18 3 -2 47 -7 96
-10 50 -4 113 -9 140 -12 61 -8 246 -8 272 0 10 3 54 8 98 11 88 7 134 13 146
21 4 2 27 7 51 10 24 3 54 9 68 14 14 5 36 12 50 14 14 3 68 19 120 36 52 18
101 32 108 33 6 0 12 4 12 9 0 4 7 8 15 8 15 0 141 55 210 93 22 11 50 26 62
32 13 5 23 13 23 18 0 4 6 7 13 7 7 0 22 7 32 15 11 8 54 37 95 64 41 28 81
56 89 63 8 7 29 23 45 36 124 93 281 251 386 391 14 18 30 38 35 44 6 7 21 29
35 49 14 21 28 38 33 38 4 0 7 5 7 11 0 6 20 43 43 82 59 97 133 248 142 286
4 17 10 31 14 31 6 0 31 62 36 90 1 6 45 148 53 170 7 21 11 40 17 84 3 21 7
41 10 45 7 12 16 63 19 111 2 25 9 73 16 108 13 73 12 428 -1 454 -5 10 -11
46 -14 80 -2 35 -6 72 -9 83 -16 60 -32 146 -30 159 1 9 -2 16 -7 16 -5 0 -9
8 -9 18 0 32 -53 183 -108 305 -12 26 -22 54 -22 61 0 8 -3 16 -7 18 -5 2 -25
37 -46 78 -21 41 -48 91 -59 110 -21 36 -155 226 -173 246 -5 6 -30 35 -55 64
-57 68 -185 196 -235 235 -21 17 -54 45 -74 62 -20 18 -42 33 -49 33 -7 0 -10
5 -7 10 3 6 -1 10 -9 10 -8 0 -21 6 -28 13 -16 16 -144 98 -180 117 -15 7 -36
21 -45 30 -10 9 -20 16 -23 17 -4 0 -52 21 -125 53 -68 30 -178 75 -185 75 -8
0 -123 37 -145 46 -11 5 -36 11 -55 13 -19 3 -48 10 -65 16 -16 7 -51 14 -77
16 -26 2 -60 6 -75 9 -70 16 -131 19 -318 19 -214 0 -278 -3 -310 -15 -11 -3
-51 -10 -90 -14 -38 -4 -76 -10 -85 -15 -8 -4 -32 -11 -53 -14 -40 -6 -128
-31 -162 -47 -37 -16 -140 -51 -152 -52 -7 0 -13 -4 -13 -9 0 -4 -5 -8 -10 -8
-6 0 -40 -14 -76 -30 -51 -24 -68 -28 -84 -20 -11 6 -20 15 -20 20 0 6 -24 43
-53 83 -29 39 -68 97 -86 127 -19 30 -39 62 -47 70 -7 8 -22 25 -34 38 -11 12
-17 22 -12 22 4 0 0 6 -8 13 -20 17 -60 74 -60 87 0 5 -3 10 -7 10 -5 0 -21
20 -36 45 -16 25 -33 45 -39 45 -5 0 -7 4 -4 9 3 4 -3 16 -14 26 -11 10 -20
22 -20 27 0 5 -10 20 -23 33 -12 14 -31 42 -42 62 -11 21 -34 54 -52 73 -18
19 -33 40 -33 46 0 7 -7 15 -16 18 -8 3 -13 10 -9 16 3 5 -3 15 -15 22 -11 7
-20 21 -20 30 0 10 -4 18 -9 18 -5 0 -26 27 -47 60 -22 33 -42 60 -46 60 -5 0
-8 7 -8 15 0 8 -9 20 -20 27 -11 7 -20 20 -20 29 0 9 -6 19 -12 22 -7 3 -22
22 -33 43 -23 46 -26 50 -61 89 -15 17 -34 41 -42 55 -33 52 -137 195 -144
198 -5 2 -8 8 -8 14 0 6 -13 27 -30 48 -16 21 -30 41 -30 44 0 4 -8 16 -19 27
-10 11 -29 40 -41 64 -13 25 -26 45 -31 45 -4 0 -9 6 -12 13 -4 11 56 13 327
13 182 -1 341 3 354 8 14 6 22 18 23 35 4 149 0 1241 -5 1249 -5 9 -114 11
-389 8 -210 -2 -389 -6 -397 -8 -65 -20 -170 -63 -170 -70 0 -5 -7 -8 -15 -8
-14 0 -31 -12 -80 -55 -61 -54 -91 -84 -105 -105 -8 -13 -22 -31 -30 -40 -8
-9 -16 -23 -18 -31 -2 -8 -10 -21 -18 -30 -8 -8 -14 -22 -14 -30 0 -8 -5 -20
-11 -26 -6 -6 -13 -26 -16 -44 -3 -19 -7 -36 -9 -38 -8 -8 -35 24 -70 81 -20
33 -47 71 -60 85 -13 14 -41 51 -61 82 -20 31 -42 61 -48 68 -11 12 -144 204
-160 231 -5 9 -12 19 -16 22 -3 3 -16 23 -29 45 -13 21 -31 46 -40 55 -9 9
-31 37 -49 63 -19 26 -38 47 -43 47 -4 0 -8 4 -8 10 0 27 -224 210 -257 210
-7 0 -13 4 -13 8 0 14 -130 65 -200 79 -39 8 -44 9 -65 16 -11 3 -69 12 -130
18 -127 13 -1305 19 -1305 6z m-4051 -4187 c52 -2 118 -9 145 -17 28 -7 71
-16 96 -19 24 -3 52 -10 61 -15 10 -5 26 -9 36 -9 10 -1 36 -9 58 -20 22 -11
47 -19 56 -20 8 0 20 -5 26 -11 6 -6 17 -11 26 -13 18 -2 90 -38 97 -48 3 -3
18 -10 33 -13 16 -4 31 -14 34 -21 3 -8 9 -12 13 -9 4 2 18 -4 30 -15 13 -11
27 -20 32 -20 8 0 15 -4 51 -35 7 -6 28 -22 47 -35 19 -14 47 -37 62 -52 15
-16 30 -28 33 -28 10 0 91 -86 160 -170 38 -47 72 -87 75 -90 11 -11 105 -173
105 -182 0 -3 3 -10 8 -14 12 -13 57 -112 57 -128 0 -8 4 -16 9 -18 6 -1 12
-15 14 -29 6 -31 36 -127 48 -151 5 -10 9 -29 9 -43 0 -23 -3 -25 -52 -26 -29
0 -168 -2 -308 -5 -140 -2 -259 0 -265 4 -12 9 -45 70 -45 84 0 31 -113 191
-185 263 -92 91 -131 125 -144 125 -5 0 -16 6 -23 13 -23 22 -85 57 -102 57
-9 0 -16 4 -16 10 0 5 -12 13 -27 16 -16 4 -32 10 -38 14 -19 14 -150 48 -190
49 -22 1 -58 7 -80 12 -46 13 -229 -4 -307 -27 -26 -8 -52 -14 -58 -14 -24 0
-230 -99 -230 -111 0 -4 -8 -10 -17 -13 -56 -20 -202 -163 -269 -262 -43 -65
-104 -182 -104 -202 0 -7 -6 -23 -14 -35 -60 -96 -58 -488 3 -622 5 -11 19
-44 31 -74 23 -57 79 -154 92 -159 4 -2 8 -10 8 -18 0 -8 7 -17 15 -20 8 -4
15 -10 15 -16 0 -13 153 -168 166 -168 7 0 14 -3 16 -7 4 -11 65 -53 76 -53 5
0 15 -7 22 -15 7 -8 21 -15 31 -15 11 0 19 -4 19 -10 0 -5 12 -13 28 -16 15
-4 36 -13 47 -20 11 -8 29 -14 40 -14 12 0 25 -4 30 -9 10 -10 96 -28 200 -41
76 -10 208 -4 234 9 11 6 39 11 63 11 24 0 53 7 64 15 10 8 27 15 37 15 11 0
31 6 45 14 15 7 49 24 75 37 66 33 84 43 105 62 10 10 22 17 25 17 21 0 227
204 227 224 0 8 4 16 8 18 15 6 90 141 112 201 l10 28 272 -2 c338 -1 358 -3
358 -35 0 -12 -4 -26 -10 -29 -5 -3 -10 -16 -10 -28 -1 -12 -8 -40 -16 -62 -8
-22 -17 -53 -20 -70 -4 -16 -9 -32 -14 -35 -4 -3 -11 -16 -15 -30 -9 -31 -69
-154 -95 -195 -11 -16 -24 -40 -29 -51 -5 -12 -21 -34 -35 -49 -14 -15 -26
-32 -26 -36 0 -5 -8 -17 -17 -27 -10 -11 -43 -47 -73 -82 -30 -35 -67 -75 -81
-89 -67 -65 -108 -101 -117 -101 -6 0 -12 -3 -14 -7 -8 -18 -176 -133 -195
-133 -3 0 -14 -7 -24 -16 -9 -8 -24 -16 -32 -18 -8 -1 -21 -7 -28 -12 -8 -6
-39 -21 -69 -33 -30 -12 -64 -26 -75 -30 -51 -22 -114 -41 -150 -46 -22 -3
-51 -10 -65 -15 -14 -5 -45 -12 -70 -15 -25 -3 -63 -9 -85 -13 -52 -9 -329 -9
-380 0 -22 4 -65 10 -95 14 -30 3 -57 9 -60 13 -3 3 -16 8 -30 10 -14 1 -45
10 -69 18 -24 8 -56 17 -70 20 -14 2 -30 8 -36 12 -5 5 -21 12 -35 16 -56 18
-249 118 -260 135 -4 6 -11 11 -16 11 -12 -1 -114 72 -114 82 0 4 -4 7 -9 7
-5 0 -25 15 -43 33 -19 17 -48 44 -64 58 -43 39 -134 136 -134 143 0 4 -11 17
-25 30 -14 13 -25 28 -25 33 0 5 -12 23 -27 40 -16 17 -37 49 -48 70 -11 21
-26 49 -34 62 -9 13 -16 31 -17 39 -2 8 -6 18 -11 21 -12 9 -53 96 -53 114 0
8 -3 17 -8 19 -9 4 -52 136 -52 159 0 8 -4 19 -9 25 -6 5 -13 34 -16 64 -4 30
-8 57 -11 61 -18 30 -27 464 -10 504 11 24 13 36 22 100 3 28 10 58 15 67 5 9
12 34 15 55 3 21 10 40 15 41 5 2 9 11 9 20 0 21 42 125 53 133 5 3 9 10 9 15
2 22 11 44 18 44 4 0 11 11 14 24 8 33 76 146 87 146 5 0 9 6 9 13 0 10 26 46
105 145 9 12 90 92 172 170 18 17 37 32 41 32 4 0 15 8 24 18 25 26 44 40 85
64 21 12 40 25 43 29 3 3 17 12 32 20 48 25 183 92 203 100 46 20 209 70 243
75 20 3 40 8 44 11 14 8 51 14 123 19 39 3 71 7 72 7 2 3 133 1 252 -3z m9681
-4 c40 -4 79 -10 84 -14 6 -3 17 -7 26 -8 69 -9 106 -18 111 -26 3 -5 9 -9 13
-9 25 4 47 -1 58 -11 7 -7 24 -15 38 -16 50 -7 268 -113 308 -149 7 -7 18 -13
23 -13 5 0 15 -5 22 -10 7 -6 28 -24 47 -40 19 -16 38 -30 42 -30 4 0 29 -22
57 -49 28 -27 51 -47 51 -44 0 2 23 -18 50 -47 28 -29 50 -54 50 -56 0 -3 14
-18 30 -34 17 -16 30 -32 30 -34 0 -3 21 -34 48 -69 26 -35 56 -81 67 -103 11
-21 23 -40 28 -42 4 -2 7 -8 7 -14 0 -5 20 -51 44 -101 46 -96 74 -168 82
-211 2 -14 9 -37 14 -51 5 -13 12 -46 16 -72 3 -27 11 -69 18 -96 15 -60 14
-416 -2 -472 -6 -22 -14 -58 -16 -79 -3 -20 -10 -52 -15 -69 -6 -18 -17 -54
-26 -82 -9 -27 -17 -54 -19 -60 -12 -43 -42 -115 -48 -115 -5 0 -8 -4 -8 -10
0 -16 -72 -160 -81 -160 -4 0 -9 -10 -13 -23 -3 -12 -19 -38 -36 -57 -16 -18
-30 -37 -30 -41 0 -12 -121 -151 -179 -203 -18 -17 -48 -46 -67 -64 -19 -19
-34 -30 -34 -25 0 4 -4 3 -8 -3 -19 -29 -207 -154 -231 -154 -7 0 -9 -4 -6
-10 3 -5 0 -10 -8 -10 -8 0 -41 -13 -73 -29 -33 -16 -90 -39 -129 -51 -38 -13
-74 -27 -80 -31 -5 -4 -26 -10 -46 -13 -20 -3 -47 -10 -60 -14 -13 -5 -49 -13
-79 -16 -30 -4 -73 -11 -95 -14 -49 -9 -327 -7 -375 1 -19 4 -60 9 -89 13 -30
3 -62 9 -70 13 -9 5 -34 11 -56 15 -37 7 -104 27 -150 47 -11 4 -45 18 -75 30
-30 13 -57 25 -60 28 -5 6 -80 44 -90 46 -6 1 -81 48 -133 82 -20 14 -49 36
-63 49 -14 13 -29 24 -33 24 -4 0 -19 12 -33 28 -13 15 -38 39 -54 53 -16 14
-58 59 -94 98 -36 40 -71 79 -77 86 -7 8 -13 18 -13 23 0 5 -9 17 -19 26 -11
10 -27 32 -36 49 -9 18 -25 46 -35 62 -29 45 -96 185 -110 230 -7 22 -21 59
-32 82 -10 24 -18 53 -18 66 0 13 -4 27 -9 33 -5 5 -11 32 -15 59 -6 52 -9 72
-24 143 -13 58 -8 367 6 417 6 22 14 67 17 99 3 33 10 67 15 76 5 10 12 32 15
51 3 18 10 36 15 39 5 3 12 21 15 40 6 38 16 61 80 191 71 146 220 349 255
349 4 0 19 -17 31 -37 13 -21 29 -42 36 -46 7 -4 13 -13 13 -18 0 -12 90 -143
102 -147 4 -2 8 -10 8 -18 0 -7 9 -19 20 -26 11 -7 20 -18 20 -25 0 -7 5 -13
10 -13 6 0 10 -4 10 -10 0 -5 25 -42 55 -81 49 -63 69 -109 48 -109 -5 0 -17
-19 -28 -43 -11 -23 -26 -48 -32 -55 -7 -7 -13 -22 -13 -32 0 -10 -3 -20 -7
-22 -11 -4 -43 -94 -50 -137 -3 -19 -11 -51 -18 -71 -18 -52 -18 -312 1 -365
7 -22 16 -59 20 -82 3 -24 10 -43 14 -43 4 0 10 -18 14 -40 3 -22 10 -40 15
-40 5 0 12 -11 15 -25 4 -14 21 -49 38 -78 32 -52 42 -65 66 -92 6 -7 12 -17
12 -21 0 -11 127 -134 139 -134 6 0 11 -4 11 -9 0 -12 149 -111 167 -111 7 0
13 -4 13 -10 0 -5 7 -10 15 -10 8 0 32 -9 52 -20 21 -11 43 -20 49 -20 6 0 24
-6 40 -14 16 -8 52 -16 79 -20 28 -3 77 -10 110 -15 62 -11 178 -6 230 9 17 5
46 11 65 13 49 7 150 40 150 49 0 4 11 8 24 8 13 0 29 7 36 15 7 8 18 15 24
15 7 0 43 20 80 45 38 25 71 45 74 45 6 0 130 127 157 161 39 50 65 88 65 99
0 5 4 10 9 10 5 0 11 8 15 18 3 9 10 24 15 32 9 13 29 59 56 125 5 11 7 23 7
28 -1 4 3 7 10 7 6 0 9 2 6 5 -3 3 2 36 12 73 14 53 17 101 16 227 -3 181 -13
233 -75 366 -11 25 -21 51 -21 58 0 6 -4 11 -10 11 -5 0 -10 6 -10 12 0 13
-56 99 -95 147 -39 49 -165 171 -175 171 -6 0 -16 5 -23 10 -48 41 -62 50 -73
50 -7 0 -14 3 -16 8 -1 4 -28 18 -58 31 -30 13 -67 30 -82 38 -16 8 -28 12
-28 9 0 -3 -19 2 -42 10 -24 8 -65 17 -93 20 -66 6 -116 13 -138 20 -11 3 -47
1 -80 -5 -34 -6 -91 -13 -125 -15 -35 -3 -67 -7 -70 -10 -8 -9 -52 35 -52 51
0 7 -4 13 -10 13 -5 0 -10 5 -10 11 0 6 -6 16 -12 23 -7 8 -20 24 -28 36 -8
12 -36 50 -61 84 -25 33 -58 80 -73 104 -15 23 -34 51 -44 61 -27 28 -62 79
-62 91 0 6 -4 9 -9 6 -5 -3 -11 0 -14 8 -9 22 21 42 98 66 39 12 80 26 92 31
20 8 74 17 128 22 11 1 22 5 25 8 16 21 330 30 490 15z"/>
</g>
</svg>
